<svg width="28" height="28" viewBox="0 0 28 28" fill="none" xmlns="http://www.w3.org/2000/svg">
<path fill-rule="evenodd" clip-rule="evenodd" d="M13.2821 2.15385C7.13494 2.15385 2.15385 7.13098 2.15385 13.268C2.15385 19.405 7.13494 24.3821 13.2821 24.3821C16.3488 24.3821 19.1239 23.1446 21.1377 21.14C23.1606 19.1264 24.4103 16.3438 24.4103 13.268C24.4103 7.13098 19.4292 2.15385 13.2821 2.15385ZM0 13.268C0 5.9391 5.94775 0 13.2821 0C20.6164 0 26.5641 5.9391 26.5641 13.268C26.5641 16.5515 25.369 19.5576 23.3917 21.8736L27.6841 26.1611C28.1049 26.5815 28.1053 27.2633 27.685 27.6841C27.2647 28.1049 26.5828 28.1053 26.162 27.685L21.8655 23.3935C19.5511 25.353 16.5539 26.5359 13.2821 26.5359C5.94775 26.5359 0 20.5968 0 13.268Z" fill="#375E5E" style="fill:#375E5E;fill:color(display-p3 0.2157 0.3686 0.3686);fill-opacity:1;"/>
</svg>
